<?xml version="1.0" standalone="no"?>
<!DOCTYPE svg PUBLIC "-//W3C//DTD SVG 1.1//EN"
  "http://www.w3.org/Graphics/SVG/1.1/DTD/svg11.dtd">
<!-- Created with matplotlib (http://matplotlib.sourceforge.net/) -->
<svg width="393pt" height="251pt" viewBox="0 0 393 251"
   xmlns="http://www.w3.org/2000/svg"
   xmlns:xlink="http://www.w3.org/1999/xlink"
   version="1.1"
   id="svg1">
<filter id="colorAdd"><feComposite in="SourceGraphic" in2="BackgroundImage" operator="arithmetic" k2="1" k3="1"/></filter>
<g id="figure1">
<g id="patch1">
<path style="fill: #ffffff; stroke: #ffffff; stroke-width: 1.000000; stroke-linejoin: round; stroke-linecap: square;  opacity: 1.000000"  d="M0.000000 251.992547L393.949038 251.992547L393.949038 -0.000000
L0.000000 -0.000000z"/>
</g>
<g id="axes1">
<g id="patch2">
<path style="fill: #ffffff; opacity: 1.000000"  d="M35.949038 244.792547L370.749038 244.792547L370.749038 31.200000
L35.949038 31.200000z"/>
</g>
<g id="line2d1">
<defs>
  <clipPath id="p0b0361c1c630228393d1cde3d1ed6578">
<rect x="35.949038" y="31.200000" width="334.800000" height="213.592547"/>
  </clipPath>
</defs><path style="fill: none; stroke: #005959; stroke-width: 1.000000; stroke-linejoin: round; stroke-linecap: square;  opacity: 1.000000" clip-path="url(#p0b0361c1c630228393d1cde3d1ed6578)" d="M42.387500 35.307549L44.511215 54.370344L47.275572 76.488081
L49.656050 93.379995L51.876229 107.548942L54.574532 122.943653
L58.332509 141.481636L59.609501 147.101105L62.094665 157.158172
L63.516290 162.428856L66.930215 173.801280L68.283985 177.852696
L71.045169 185.393585L74.506525 193.617206L76.154737 197.103214
L78.372698 201.399229L79.967206 204.227899L83.235616 209.409072
L84.451569 211.141602L87.228767 214.738594L90.753538 218.650019
L93.484124 221.233084L95.441887 222.869021L98.214090 224.904786
L102.389516 227.415343L103.060222 227.762042L106.431730 229.290613
L108.511408 230.068163L112.828839 231.324763L116.222157 232.011418
L120.578243 232.557167L123.104099 232.720844L128.005305 232.760530
L131.641562 232.582217L136.137954 232.152380L141.332675 231.410025
L145.287316 230.695168L150.086159 229.681194L157.441599 227.871404
L165.237489 225.691192L174.231122 222.933815L185.665947 219.179926
L204.303891 212.759585L240.733709 200.157277L259.639583 193.896931
L275.620967 188.825629L292.400094 183.737504L308.391476 179.118465
L323.407909 174.983808L339.337806 170.806607L355.786811 166.710353
L364.310577 164.671021L364.310577 164.671021"/>
</g>
<g id="line2d2">
<path style="fill: none; stroke: #008080; stroke-width: 1.000000; stroke-linejoin: round; stroke-linecap: square;  opacity: 1.000000" clip-path="url(#p0b0361c1c630228393d1cde3d1ed6578)" d="M42.387500 35.307549L44.287624 46.720749L45.282164 52.369497
L49.326771 73.255775L51.843171 84.729023L53.425864 91.411112
L56.977225 105.050382L59.592445 114.012549L63.060424 124.648274
L66.218796 133.232715L69.955791 142.197512L71.619084 145.813525
L75.378268 153.225569L77.246762 156.549865L80.668131 162.079776
L84.580370 167.607999L88.055952 171.889602L89.275897 173.264972
L93.298207 177.373339L96.683466 180.369098L100.703847 183.441834
L103.483933 185.290194L107.018406 187.347321L109.689286 188.703744
L113.262544 190.277270L116.464951 191.474421L120.056754 192.601324
L122.623938 193.279470L128.148274 194.418205L133.216235 195.124510
L137.704596 195.516943L142.621728 195.728638L146.921798 195.750087
L151.733357 195.616099L159.244069 195.122838L166.950119 194.320328
L174.756177 193.263498L182.618761 192.002854L193.252616 190.059098
L203.429944 188.010392L219.861643 184.451846L243.477848 179.070466
L287.910461 168.935050L312.691022 163.539603L335.087458 158.891406
L356.275929 154.708678L364.310577 153.177985L364.310577 153.177985"/>
</g>
<g id="line2d3">
<path style="fill: none; stroke: #009f9f; stroke-width: 1.000000; stroke-linejoin: round; stroke-linecap: square;  opacity: 1.000000" clip-path="url(#p0b0361c1c630228393d1cde3d1ed6578)" d="M42.387500 35.307549L44.109864 43.106788L45.301666 48.247021
L48.233255 60.060229L50.296105 67.716095L54.254520 81.042280
L57.189192 89.879473L60.067758 97.777816L62.925219 104.934890
L66.256904 112.502720L69.390017 118.930429L71.382198 122.700572
L75.532776 129.838281L77.634144 133.113059L81.462748 138.551877
L84.413212 142.318456L85.869293 144.051936L88.883251 147.395578
L93.120127 151.583782L95.307151 153.532040L99.733050 157.073641
L102.490312 159.031589L107.060579 161.900664L110.296105 163.674404
L113.442749 165.214291L116.921101 166.722194L121.201507 168.323759
L126.390265 169.929980L131.177577 171.124373L135.518981 171.996856
L141.382525 172.895614L145.230432 173.330567L150.743791 173.765860
L156.481443 174.011855L164.115781 174.059714L171.547627 173.848770
L178.313217 173.472932L187.406787 172.741000L197.930955 171.634464
L210.305291 170.063832L224.814268 167.957913L243.460392 164.983060
L270.915510 160.329407L330.531622 150.170606L358.659909 145.619190
L364.310577 144.731305L364.310577 144.731305"/>
</g>
<g id="line2d4">
<path style="fill: none; stroke: #00bfbf; stroke-width: 1.000000; stroke-linejoin: round; stroke-linecap: square;  opacity: 1.000000" clip-path="url(#p0b0361c1c630228393d1cde3d1ed6578)" d="M42.387500 35.307549L43.436765 39.044115L47.425586 52.242769
L50.411852 61.167902L52.926268 68.109426L57.507744 79.544406
L59.640970 84.382839L62.661064 90.754656L64.922842 95.185735
L67.672045 100.208631L72.057695 107.468199L75.248494 112.222709
L79.200599 117.559340L82.202284 121.240867L86.353345 125.854233
L88.662524 128.200118L92.872035 132.107642L96.196624 134.884746
L98.834119 136.910334L103.602761 140.208662L106.569335 142.043889
L110.463675 144.224176L115.370323 146.635353L119.476731 148.394157
L124.308682 150.193232L129.383202 151.800939L134.830671 153.242110
L141.124293 154.584975L145.939693 155.407116L152.199879 156.242781
L158.073146 156.815887L165.327563 157.279955L171.886158 157.499166
L180.715253 157.540125L189.597995 157.335218L197.309497 156.991585
L206.689995 156.402441L219.826183 155.325546L234.233157 153.889785
L251.890014 151.877286L273.637738 149.159061L310.001100 144.348143
L364.310577 137.161074L364.310577 137.161074"/>
</g>
<g id="line2d5">
<path style="fill: none; stroke: #00ffff; stroke-width: 1.000000; stroke-linejoin: round; stroke-linecap: square;  opacity: 1.000000" clip-path="url(#p0b0361c1c630228393d1cde3d1ed6578)" d="M42.387500 35.307549L45.982445 43.436427L49.150140 50.048012
L52.344628 56.236220L56.140870 63.016568L59.828038 69.057279
L63.907250 75.172145L66.754548 79.116194L70.515291 83.950902
L74.786455 88.967398L78.412842 92.865174L81.282459 95.733146
L85.682674 99.789055L88.882998 102.498762L91.986474 104.948100
L97.082347 108.619421L102.309729 111.974645L105.407923 113.784883
L110.829781 116.662878L114.944616 118.621477L120.287121 120.902166
L125.529202 122.879238L130.109799 124.415823L136.624082 126.325584
L142.846133 127.879802L148.920629 129.171846L155.054125 130.275580
L162.579251 131.386151L170.242460 132.275460L178.042330 132.963273
L187.468833 133.543000L197.199244 133.895998L208.928083 134.046053
L221.072653 133.941719L233.916162 133.600497L248.635801 132.979355
L265.235727 132.053360L286.026209 130.649867L310.850676 128.738169
L347.495462 125.660043L364.310577 124.200143L364.310577 124.200143"/>
</g>
<g id="line2d6">
<path style="fill: none; stroke: #ff0000; stroke-width: 1.000000; stroke-linejoin: round; stroke-linecap: square;  opacity: 1.000000" clip-path="url(#p0b0361c1c630228393d1cde3d1ed6578)" d="M138.964423 35.307549L138.964423 240.684998"/>
</g>
<g id="matplotlib.axis1">
<g id="xtick1">
<g id="line2d7">
<defs><path id="m30e32995789d870ad79a2e54c91cf9c6" d="M0.000000 0.000000L0.000000 -4.000000"/></defs>
<g ><use style="fill: none; stroke: #000000; stroke-width: 0.500000; stroke-linejoin: round; stroke-linecap: butt;  opacity: 1.000000" xlink:href="#m30e32995789d870ad79a2e54c91cf9c6" x="42.387500" y="35.307549"/>
</g></g>
</g>
<g id="xtick2">
<g id="line2d8">
<g ><use style="fill: none; stroke: #000000; stroke-width: 0.500000; stroke-linejoin: round; stroke-linecap: butt;  opacity: 1.000000" xlink:href="#m30e32995789d870ad79a2e54c91cf9c6" x="106.772115" y="35.307549"/>
</g></g>
<g id="text1">
<defs>
<path id="c_42baa63129a918535c52adb20d687ea7" d="M12.406250 -8.296875l16.109375 0.000000l0.000000 -55.625000l-17.531250 3.515625l0.000000 -8.984375l17.437500 -3.515625l9.859375 0.000000l0.000000 64.609375l16.109375 0.000000l0.000000 8.296875l-41.984375 0.000000z"/>
<path id="c_7a2040fe3b94fcd41d0a72c84e93b115" d="M31.781250 -66.406250q-7.609375 0.000000 -11.453125 7.500000q-3.828125 7.484375 -3.828125 22.531250q0.000000 14.984375 3.828125 22.484375q3.843750 7.500000 11.453125 7.500000q7.671875 0.000000 11.500000 -7.500000q3.843750 -7.500000 3.843750 -22.484375q0.000000 -15.046875 -3.843750 -22.531250q-3.828125 -7.500000 -11.500000 -7.500000M31.781250 -74.218750q12.265625 0.000000 18.734375 9.703125q6.468750 9.687500 6.468750 28.140625q0.000000 18.406250 -6.468750 28.109375q-6.468750 9.687500 -18.734375 9.687500q-12.250000 0.000000 -18.718750 -9.687500q-6.468750 -9.703125 -6.468750 -28.109375q0.000000 -18.453125 6.468750 -28.140625q6.468750 -9.703125 18.718750 -9.703125"/>
</defs>
<g style="fill: #000000; opacity: 1.000000" transform="translate(98.108053,46.729424)scale(0.100000)">
<use xlink:href="#c_42baa63129a918535c52adb20d687ea7"/>
<use xlink:href="#c_7a2040fe3b94fcd41d0a72c84e93b115" x="63.623047"/>
<use xlink:href="#c_7a2040fe3b94fcd41d0a72c84e93b115" x="127.246094"/>
</g>
</g>
</g>
<g id="xtick3">
<g id="line2d9">
<g ><use style="fill: none; stroke: #000000; stroke-width: 0.500000; stroke-linejoin: round; stroke-linecap: butt;  opacity: 1.000000" xlink:href="#m30e32995789d870ad79a2e54c91cf9c6" x="171.156731" y="35.307549"/>
</g></g>
<g id="text2">
<defs>
<path id="c_ed3f3ed3ebfbd18bcb9c012009a68ad1" d="M19.187500 -8.296875l34.421875 0.000000l0.000000 8.296875l-46.281250 0.000000l0.000000 -8.296875q5.609375 -5.812500 15.296875 -15.593750q9.703125 -9.796875 12.187500 -12.640625q4.734375 -5.312500 6.609375 -9.000000q1.890625 -3.687500 1.890625 -7.250000q0.000000 -5.812500 -4.078125 -9.468750q-4.078125 -3.671875 -10.625000 -3.671875q-4.640625 0.000000 -9.796875 1.609375q-5.140625 1.609375 -11.000000 4.890625l0.000000 -9.968750q5.953125 -2.390625 11.125000 -3.609375q5.187500 -1.218750 9.484375 -1.218750q11.328125 0.000000 18.062500 5.671875q6.734375 5.656250 6.734375 15.125000q0.000000 4.500000 -1.687500 8.531250q-1.671875 4.015625 -6.125000 9.484375q-1.218750 1.421875 -7.765625 8.187500q-6.531250 6.765625 -18.453125 18.921875"/>
</defs>
<g style="fill: #000000; opacity: 1.000000" transform="translate(162.312981,46.729424)scale(0.100000)">
<use xlink:href="#c_ed3f3ed3ebfbd18bcb9c012009a68ad1"/>
<use xlink:href="#c_7a2040fe3b94fcd41d0a72c84e93b115" x="63.623047"/>
<use xlink:href="#c_7a2040fe3b94fcd41d0a72c84e93b115" x="127.246094"/>
</g>
</g>
</g>
<g id="xtick4">
<g id="line2d10">
<g ><use style="fill: none; stroke: #000000; stroke-width: 0.500000; stroke-linejoin: round; stroke-linecap: butt;  opacity: 1.000000" xlink:href="#m30e32995789d870ad79a2e54c91cf9c6" x="235.541346" y="35.307549"/>
</g></g>
<g id="text3">
<defs>
<path id="c_3dcfa38a02242cb63ec6726c6e70be7a" d="M40.578125 -39.312500q7.078125 1.515625 11.046875 6.312500q3.984375 4.781250 3.984375 11.812500q0.000000 10.781250 -7.421875 16.703125q-7.421875 5.906250 -21.093750 5.906250q-4.578125 0.000000 -9.437500 -0.906250q-4.859375 -0.906250 -10.031250 -2.718750l0.000000 -9.515625q4.093750 2.390625 8.968750 3.609375q4.890625 1.218750 10.218750 1.218750q9.265625 0.000000 14.125000 -3.656250q4.859375 -3.656250 4.859375 -10.640625q0.000000 -6.453125 -4.515625 -10.078125q-4.515625 -3.640625 -12.562500 -3.640625l-8.500000 0.000000l0.000000 -8.109375l8.890625 0.000000q7.265625 0.000000 11.125000 -2.906250q3.859375 -2.906250 3.859375 -8.375000q0.000000 -5.609375 -3.984375 -8.609375q-3.968750 -3.015625 -11.390625 -3.015625q-4.062500 0.000000 -8.703125 0.890625q-4.640625 0.875000 -10.203125 2.718750l0.000000 -8.781250q5.625000 -1.562500 10.531250 -2.343750q4.906250 -0.781250 9.250000 -0.781250q11.234375 0.000000 17.765625 5.109375q6.546875 5.093750 6.546875 13.781250q0.000000 6.062500 -3.468750 10.234375q-3.468750 4.171875 -9.859375 5.781250"/>
</defs>
<g style="fill: #000000; opacity: 1.000000" transform="translate(226.713221,46.729424)scale(0.100000)">
<use xlink:href="#c_3dcfa38a02242cb63ec6726c6e70be7a"/>
<use xlink:href="#c_7a2040fe3b94fcd41d0a72c84e93b115" x="63.623047"/>
<use xlink:href="#c_7a2040fe3b94fcd41d0a72c84e93b115" x="127.246094"/>
</g>
</g>
</g>
<g id="xtick5">
<g id="line2d11">
<g ><use style="fill: none; stroke: #000000; stroke-width: 0.500000; stroke-linejoin: round; stroke-linecap: butt;  opacity: 1.000000" xlink:href="#m30e32995789d870ad79a2e54c91cf9c6" x="299.925962" y="35.307549"/>
</g></g>
<g id="text4">
<defs>
<path id="c_a0416418d96557a09b8c1332d34883ba" d="M37.796875 -64.312500l-24.906250 38.921875l24.906250 0.000000zM35.203125 -72.906250l12.406250 0.000000l0.000000 47.515625l10.406250 0.000000l0.000000 8.203125l-10.406250 0.000000l0.000000 17.187500l-9.812500 0.000000l0.000000 -17.187500l-32.906250 0.000000l0.000000 -9.515625z"/>
</defs>
<g style="fill: #000000; opacity: 1.000000" transform="translate(290.957212,46.729424)scale(0.100000)">
<use xlink:href="#c_a0416418d96557a09b8c1332d34883ba"/>
<use xlink:href="#c_7a2040fe3b94fcd41d0a72c84e93b115" x="63.623047"/>
<use xlink:href="#c_7a2040fe3b94fcd41d0a72c84e93b115" x="127.246094"/>
</g>
</g>
</g>
<g id="xtick6">
<g id="line2d12">
<g ><use style="fill: none; stroke: #000000; stroke-width: 0.500000; stroke-linejoin: round; stroke-linecap: butt;  opacity: 1.000000" xlink:href="#m30e32995789d870ad79a2e54c91cf9c6" x="364.310577" y="35.307549"/>
</g></g>
<g id="text5">
<defs>
<path id="c_1260a2df50f305f3db244e29828f968e" d="M10.796875 -72.906250l38.718750 0.000000l0.000000 8.312500l-29.687500 0.000000l0.000000 17.859375q2.140625 -0.734375 4.281250 -1.093750q2.156250 -0.359375 4.312500 -0.359375q12.203125 0.000000 19.328125 6.687500q7.140625 6.687500 7.140625 18.109375q0.000000 11.765625 -7.328125 18.296875q-7.328125 6.515625 -20.656250 6.515625q-4.593750 0.000000 -9.359375 -0.781250q-4.750000 -0.781250 -9.828125 -2.343750l0.000000 -9.921875q4.390625 2.390625 9.078125 3.562500q4.687500 1.171875 9.906250 1.171875q8.453125 0.000000 13.375000 -4.437500q4.937500 -4.437500 4.937500 -12.062500q0.000000 -7.609375 -4.937500 -12.046875q-4.921875 -4.453125 -13.375000 -4.453125q-3.953125 0.000000 -7.890625 0.875000q-3.921875 0.875000 -8.015625 2.734375z"/>
</defs>
<g style="fill: #000000; opacity: 1.000000" transform="translate(355.482452,46.729424)scale(0.100000)">
<use xlink:href="#c_1260a2df50f305f3db244e29828f968e"/>
<use xlink:href="#c_7a2040fe3b94fcd41d0a72c84e93b115" x="63.623047"/>
<use xlink:href="#c_7a2040fe3b94fcd41d0a72c84e93b115" x="127.246094"/>
</g>
</g>
</g>
<g id="xtick7">
<g id="line2d13">
<defs><path id="m3b2d125790092c17af877e29e2858cbc" d="M0.000000 0.000000L0.000000 -2.000000"/></defs>
<g ><use style="fill: none; stroke: #000000; stroke-width: 0.500000; stroke-linejoin: round; stroke-linecap: butt;  opacity: 1.000000" xlink:href="#m3b2d125790092c17af877e29e2858cbc" x="58.483654" y="35.307549"/>
</g></g>
</g>
<g id="xtick8">
<g id="line2d14">
<g ><use style="fill: none; stroke: #000000; stroke-width: 0.500000; stroke-linejoin: round; stroke-linecap: butt;  opacity: 1.000000" xlink:href="#m3b2d125790092c17af877e29e2858cbc" x="74.579808" y="35.307549"/>
</g></g>
</g>
<g id="xtick9">
<g id="line2d15">
<g ><use style="fill: none; stroke: #000000; stroke-width: 0.500000; stroke-linejoin: round; stroke-linecap: butt;  opacity: 1.000000" xlink:href="#m3b2d125790092c17af877e29e2858cbc" x="90.675962" y="35.307549"/>
</g></g>
</g>
<g id="xtick10">
<g id="line2d16">
<g ><use style="fill: none; stroke: #000000; stroke-width: 0.500000; stroke-linejoin: round; stroke-linecap: butt;  opacity: 1.000000" xlink:href="#m3b2d125790092c17af877e29e2858cbc" x="122.868269" y="35.307549"/>
</g></g>
</g>
<g id="xtick11">
<g id="line2d17">
<g ><use style="fill: none; stroke: #000000; stroke-width: 0.500000; stroke-linejoin: round; stroke-linecap: butt;  opacity: 1.000000" xlink:href="#m3b2d125790092c17af877e29e2858cbc" x="138.964423" y="35.307549"/>
</g></g>
</g>
<g id="xtick12">
<g id="line2d18">
<g ><use style="fill: none; stroke: #000000; stroke-width: 0.500000; stroke-linejoin: round; stroke-linecap: butt;  opacity: 1.000000" xlink:href="#m3b2d125790092c17af877e29e2858cbc" x="155.060577" y="35.307549"/>
</g></g>
</g>
<g id="xtick13">
<g id="line2d19">
<g ><use style="fill: none; stroke: #000000; stroke-width: 0.500000; stroke-linejoin: round; stroke-linecap: butt;  opacity: 1.000000" xlink:href="#m3b2d125790092c17af877e29e2858cbc" x="187.252885" y="35.307549"/>
</g></g>
</g>
<g id="xtick14">
<g id="line2d20">
<g ><use style="fill: none; stroke: #000000; stroke-width: 0.500000; stroke-linejoin: round; stroke-linecap: butt;  opacity: 1.000000" xlink:href="#m3b2d125790092c17af877e29e2858cbc" x="203.349038" y="35.307549"/>
</g></g>
</g>
<g id="xtick15">
<g id="line2d21">
<g ><use style="fill: none; stroke: #000000; stroke-width: 0.500000; stroke-linejoin: round; stroke-linecap: butt;  opacity: 1.000000" xlink:href="#m3b2d125790092c17af877e29e2858cbc" x="219.445192" y="35.307549"/>
</g></g>
</g>
<g id="xtick16">
<g id="line2d22">
<g ><use style="fill: none; stroke: #000000; stroke-width: 0.500000; stroke-linejoin: round; stroke-linecap: butt;  opacity: 1.000000" xlink:href="#m3b2d125790092c17af877e29e2858cbc" x="251.637500" y="35.307549"/>
</g></g>
</g>
<g id="xtick17">
<g id="line2d23">
<g ><use style="fill: none; stroke: #000000; stroke-width: 0.500000; stroke-linejoin: round; stroke-linecap: butt;  opacity: 1.000000" xlink:href="#m3b2d125790092c17af877e29e2858cbc" x="267.733654" y="35.307549"/>
</g></g>
</g>
<g id="xtick18">
<g id="line2d24">
<g ><use style="fill: none; stroke: #000000; stroke-width: 0.500000; stroke-linejoin: round; stroke-linecap: butt;  opacity: 1.000000" xlink:href="#m3b2d125790092c17af877e29e2858cbc" x="283.829808" y="35.307549"/>
</g></g>
</g>
<g id="xtick19">
<g id="line2d25">
<g ><use style="fill: none; stroke: #000000; stroke-width: 0.500000; stroke-linejoin: round; stroke-linecap: butt;  opacity: 1.000000" xlink:href="#m3b2d125790092c17af877e29e2858cbc" x="316.022115" y="35.307549"/>
</g></g>
</g>
<g id="xtick20">
<g id="line2d26">
<g ><use style="fill: none; stroke: #000000; stroke-width: 0.500000; stroke-linejoin: round; stroke-linecap: butt;  opacity: 1.000000" xlink:href="#m3b2d125790092c17af877e29e2858cbc" x="332.118269" y="35.307549"/>
</g></g>
</g>
<g id="xtick21">
<g id="line2d27">
<g ><use style="fill: none; stroke: #000000; stroke-width: 0.500000; stroke-linejoin: round; stroke-linecap: butt;  opacity: 1.000000" xlink:href="#m3b2d125790092c17af877e29e2858cbc" x="348.214423" y="35.307549"/>
</g></g>
</g>
<g id="text6">
<defs>
<path id="c_37be95c62dc54aa24625fda644d3578c" d="M4.890625 -0.000000q-0.984375 0.000000 -0.984375 -1.312500q0.046875 -0.250000 0.187500 -0.859375q0.156250 -0.609375 0.421875 -0.968750q0.265625 -0.375000 0.656250 -0.375000q6.109375 0.000000 8.546875 -0.687500q1.265625 -0.437500 1.859375 -2.687500l13.718750 -54.921875q0.203125 -0.984375 0.203125 -1.375000q0.000000 -1.078125 -1.171875 -1.218750q-1.906250 -0.390625 -7.234375 -0.390625q-0.968750 0.000000 -0.968750 -1.312500q0.046875 -0.250000 0.187500 -0.859375q0.140625 -0.609375 0.406250 -0.968750q0.281250 -0.375000 0.671875 -0.375000l30.312500 0.000000q3.625000 0.000000 7.531250 0.828125q3.906250 0.828125 7.171875 2.609375q3.265625 1.781250 5.359375 4.750000q2.109375 2.953125 2.109375 6.906250q0.000000 5.031250 -3.328125 8.984375q-3.312500 3.953125 -8.390625 6.609375q-5.078125 2.656250 -9.859375 3.734375q3.906250 1.421875 6.390625 4.531250q2.500000 3.093750 2.500000 7.140625q0.000000 0.531250 -0.031250 0.812500q-0.015625 0.265625 -0.078125 0.609375l-0.781250 8.875000q-0.093750 1.953125 -0.187500 3.328125q-0.093750 1.359375 -0.093750 2.203125q0.000000 2.734375 0.796875 4.375000q0.812500 1.625000 3.203125 1.625000q3.125000 0.000000 5.484375 -2.906250q2.375000 -2.906250 3.109375 -6.328125q0.437500 -0.875000 0.968750 -0.875000l0.937500 0.000000q0.968750 0.000000 0.968750 1.312500q-0.734375 2.890625 -2.328125 5.484375q-1.578125 2.578125 -4.000000 4.234375q-2.406250 1.671875 -5.234375 1.671875q-5.859375 0.000000 -9.984375 -2.609375q-4.125000 -2.625000 -4.125000 -8.187500q0.000000 -2.093750 0.390625 -3.718750l2.187500 -8.875000q0.390625 -1.218750 0.390625 -2.843750q0.000000 -4.140625 -2.812500 -6.500000q-2.796875 -2.375000 -7.046875 -2.375000l-12.312500 0.000000l-6.578125 26.406250q-0.250000 0.828125 -0.250000 1.421875q0.000000 1.031250 1.218750 1.171875q1.906250 0.390625 7.171875 0.390625q1.031250 0.000000 1.031250 1.312500q-0.343750 1.421875 -0.546875 1.812500q-0.187500 0.390625 -1.156250 0.390625zM31.203125 -35.500000l11.078125 0.000000q10.890625 0.000000 16.406250 -5.515625q2.546875 -2.546875 4.031250 -6.468750q1.484375 -3.937500 1.484375 -7.843750q0.000000 -3.703125 -2.171875 -5.796875q-2.171875 -2.109375 -5.375000 -2.890625q-3.187500 -0.781250 -7.046875 -0.781250l-6.687500 0.000000q-2.734375 0.000000 -3.625000 0.468750q-0.875000 0.453125 -1.593750 2.953125z"/>
</defs>
<g id="mathtext1">
<g style="fill: #000000" transform="translate(378.749038,36.307549)">
<use xlink:href="#c_37be95c62dc54aa24625fda644d3578c" transform="translate(0.000000,-1.171875)scale(0.100000)"/>
</g>
</g>
</g>
</g>
<g id="matplotlib.axis2">
<g id="ytick1">
<g id="line2d28">
<defs><path id="m3400efa6b1638b3fea9e19e898273957" d="M0.000000 0.000000L4.000000 0.000000"/></defs>
<g ><use style="fill: none; stroke: #000000; stroke-width: 0.500000; stroke-linejoin: round; stroke-linecap: butt;  opacity: 1.000000" xlink:href="#m3400efa6b1638b3fea9e19e898273957" x="42.387500" y="240.684998"/>
</g></g>
<g id="text7">
<defs>
<path id="c_7b26b13f539f13a4c64eef23b6952d29" d="M4.890625 -31.390625l26.312500 0.000000l0.000000 8.000000l-26.312500 0.000000z"/>
<path id="c_ed3e21196fb739f392806f09ca0594ef" d="M10.687500 -12.406250l10.312500 0.000000l0.000000 12.406250l-10.312500 0.000000z"/>
</defs>
<g style="fill: #000000; opacity: 1.000000" transform="translate(13.918750,244.325623)scale(0.100000)">
<use xlink:href="#c_7b26b13f539f13a4c64eef23b6952d29"/>
<use xlink:href="#c_7a2040fe3b94fcd41d0a72c84e93b115" x="36.083984"/>
<use xlink:href="#c_ed3e21196fb739f392806f09ca0594ef" x="99.707031"/>
<use xlink:href="#c_7a2040fe3b94fcd41d0a72c84e93b115" x="131.494141"/>
<use xlink:href="#c_42baa63129a918535c52adb20d687ea7" x="195.117188"/>
</g>
</g>
</g>
<g id="ytick2">
<g id="line2d29">
<g ><use style="fill: none; stroke: #000000; stroke-width: 0.500000; stroke-linejoin: round; stroke-linecap: butt;  opacity: 1.000000" xlink:href="#m3400efa6b1638b3fea9e19e898273957" x="42.387500" y="199.609508"/>
</g></g>
<g id="text8">
<defs>
<path id="c_bef35738d52871942e50b9de9b122bab" d="M31.781250 -34.625000q-7.031250 0.000000 -11.062500 3.765625q-4.015625 3.765625 -4.015625 10.343750q0.000000 6.593750 4.015625 10.359375q4.031250 3.765625 11.062500 3.765625q7.031250 0.000000 11.078125 -3.781250q4.062500 -3.796875 4.062500 -10.343750q0.000000 -6.578125 -4.031250 -10.343750q-4.015625 -3.765625 -11.109375 -3.765625M21.921875 -38.812500q-6.343750 -1.562500 -9.890625 -5.906250q-3.531250 -4.359375 -3.531250 -10.609375q0.000000 -8.734375 6.218750 -13.812500q6.234375 -5.078125 17.062500 -5.078125q10.890625 0.000000 17.093750 5.078125q6.203125 5.078125 6.203125 13.812500q0.000000 6.250000 -3.546875 10.609375q-3.531250 4.343750 -9.828125 5.906250q7.125000 1.656250 11.093750 6.500000q3.984375 4.828125 3.984375 11.796875q0.000000 10.609375 -6.468750 16.281250q-6.468750 5.656250 -18.531250 5.656250q-12.046875 0.000000 -18.531250 -5.656250q-6.468750 -5.671875 -6.468750 -16.281250q0.000000 -6.968750 4.000000 -11.796875q4.015625 -4.843750 11.140625 -6.500000M18.312500 -54.390625q0.000000 5.656250 3.531250 8.828125q3.546875 3.171875 9.937500 3.171875q6.359375 0.000000 9.937500 -3.171875q3.593750 -3.171875 3.593750 -8.828125q0.000000 -5.671875 -3.593750 -8.843750q-3.578125 -3.171875 -9.937500 -3.171875q-6.390625 0.000000 -9.937500 3.171875q-3.531250 3.171875 -3.531250 8.843750"/>
</defs>
<g style="fill: #000000; opacity: 1.000000" transform="translate(7.309375,203.250133)scale(0.100000)">
<use xlink:href="#c_7b26b13f539f13a4c64eef23b6952d29"/>
<use xlink:href="#c_7a2040fe3b94fcd41d0a72c84e93b115" x="36.083984"/>
<use xlink:href="#c_ed3e21196fb739f392806f09ca0594ef" x="99.707031"/>
<use xlink:href="#c_7a2040fe3b94fcd41d0a72c84e93b115" x="131.494141"/>
<use xlink:href="#c_7a2040fe3b94fcd41d0a72c84e93b115" x="195.117188"/>
<use xlink:href="#c_bef35738d52871942e50b9de9b122bab" x="258.740234"/>
</g>
</g>
</g>
<g id="ytick3">
<g id="line2d30">
<g ><use style="fill: none; stroke: #000000; stroke-width: 0.500000; stroke-linejoin: round; stroke-linecap: butt;  opacity: 1.000000" xlink:href="#m3400efa6b1638b3fea9e19e898273957" x="42.387500" y="158.534018"/>
</g></g>
<g id="text9">
<defs>
<path id="c_cc8d6d580d1b10c8632f7a42cd53db8a" d="M33.015625 -40.375000q-6.640625 0.000000 -10.531250 4.546875q-3.875000 4.531250 -3.875000 12.437500q0.000000 7.859375 3.875000 12.437500q3.890625 4.562500 10.531250 4.562500q6.640625 0.000000 10.515625 -4.562500q3.875000 -4.578125 3.875000 -12.437500q0.000000 -7.906250 -3.875000 -12.437500q-3.875000 -4.546875 -10.515625 -4.546875M52.593750 -71.296875l0.000000 8.984375q-3.718750 -1.750000 -7.500000 -2.671875q-3.781250 -0.937500 -7.500000 -0.937500q-9.765625 0.000000 -14.921875 6.593750q-5.140625 6.593750 -5.875000 19.921875q2.875000 -4.250000 7.218750 -6.515625q4.359375 -2.265625 9.578125 -2.265625q10.984375 0.000000 17.359375 6.671875q6.375000 6.656250 6.375000 18.125000q0.000000 11.234375 -6.640625 18.031250q-6.640625 6.781250 -17.671875 6.781250q-12.656250 0.000000 -19.343750 -9.687500q-6.687500 -9.703125 -6.687500 -28.109375q0.000000 -17.281250 8.203125 -27.562500q8.203125 -10.281250 22.015625 -10.281250q3.718750 0.000000 7.500000 0.734375q3.781250 0.734375 7.890625 2.187500"/>
</defs>
<g style="fill: #000000; opacity: 1.000000" transform="translate(7.262500,162.174643)scale(0.100000)">
<use xlink:href="#c_7b26b13f539f13a4c64eef23b6952d29"/>
<use xlink:href="#c_7a2040fe3b94fcd41d0a72c84e93b115" x="36.083984"/>
<use xlink:href="#c_ed3e21196fb739f392806f09ca0594ef" x="99.707031"/>
<use xlink:href="#c_7a2040fe3b94fcd41d0a72c84e93b115" x="131.494141"/>
<use xlink:href="#c_7a2040fe3b94fcd41d0a72c84e93b115" x="195.117188"/>
<use xlink:href="#c_cc8d6d580d1b10c8632f7a42cd53db8a" x="258.740234"/>
</g>
</g>
</g>
<g id="ytick4">
<g id="line2d31">
<g ><use style="fill: none; stroke: #000000; stroke-width: 0.500000; stroke-linejoin: round; stroke-linecap: butt;  opacity: 1.000000" xlink:href="#m3400efa6b1638b3fea9e19e898273957" x="42.387500" y="117.458528"/>
</g></g>
<g id="text10">
<g style="fill: #000000; opacity: 1.000000" transform="translate(7.200000,121.099153)scale(0.100000)">
<use xlink:href="#c_7b26b13f539f13a4c64eef23b6952d29"/>
<use xlink:href="#c_7a2040fe3b94fcd41d0a72c84e93b115" x="36.083984"/>
<use xlink:href="#c_ed3e21196fb739f392806f09ca0594ef" x="99.707031"/>
<use xlink:href="#c_7a2040fe3b94fcd41d0a72c84e93b115" x="131.494141"/>
<use xlink:href="#c_7a2040fe3b94fcd41d0a72c84e93b115" x="195.117188"/>
<use xlink:href="#c_a0416418d96557a09b8c1332d34883ba" x="258.740234"/>
</g>
</g>
</g>
<g id="ytick5">
<g id="line2d32">
<g ><use style="fill: none; stroke: #000000; stroke-width: 0.500000; stroke-linejoin: round; stroke-linecap: butt;  opacity: 1.000000" xlink:href="#m3400efa6b1638b3fea9e19e898273957" x="42.387500" y="76.383039"/>
</g></g>
<g id="text11">
<g style="fill: #000000; opacity: 1.000000" transform="translate(7.637500,80.023664)scale(0.100000)">
<use xlink:href="#c_7b26b13f539f13a4c64eef23b6952d29"/>
<use xlink:href="#c_7a2040fe3b94fcd41d0a72c84e93b115" x="36.083984"/>
<use xlink:href="#c_ed3e21196fb739f392806f09ca0594ef" x="99.707031"/>
<use xlink:href="#c_7a2040fe3b94fcd41d0a72c84e93b115" x="131.494141"/>
<use xlink:href="#c_7a2040fe3b94fcd41d0a72c84e93b115" x="195.117188"/>
<use xlink:href="#c_ed3f3ed3ebfbd18bcb9c012009a68ad1" x="258.740234"/>
</g>
</g>
</g>
<g id="ytick6">
<g id="line2d33">
<g ><use style="fill: none; stroke: #000000; stroke-width: 0.500000; stroke-linejoin: round; stroke-linecap: butt;  opacity: 1.000000" xlink:href="#m3400efa6b1638b3fea9e19e898273957" x="42.387500" y="35.307549"/>
</g></g>
</g>
<g id="ytick7">
<g id="line2d34">
<defs><path id="mb39cfcf7402899e54c4d755745537394" d="M0.000000 0.000000L2.000000 0.000000"/></defs>
<g ><use style="fill: none; stroke: #000000; stroke-width: 0.500000; stroke-linejoin: round; stroke-linecap: butt;  opacity: 1.000000" xlink:href="#mb39cfcf7402899e54c4d755745537394" x="42.387500" y="230.416125"/>
</g></g>
</g>
<g id="ytick8">
<g id="line2d35">
<g ><use style="fill: none; stroke: #000000; stroke-width: 0.500000; stroke-linejoin: round; stroke-linecap: butt;  opacity: 1.000000" xlink:href="#mb39cfcf7402899e54c4d755745537394" x="42.387500" y="220.147253"/>
</g></g>
</g>
<g id="ytick9">
<g id="line2d36">
<g ><use style="fill: none; stroke: #000000; stroke-width: 0.500000; stroke-linejoin: round; stroke-linecap: butt;  opacity: 1.000000" xlink:href="#mb39cfcf7402899e54c4d755745537394" x="42.387500" y="209.878380"/>
</g></g>
</g>
<g id="ytick10">
<g id="line2d37">
<g ><use style="fill: none; stroke: #000000; stroke-width: 0.500000; stroke-linejoin: round; stroke-linecap: butt;  opacity: 1.000000" xlink:href="#mb39cfcf7402899e54c4d755745537394" x="42.387500" y="189.340635"/>
</g></g>
</g>
<g id="ytick11">
<g id="line2d38">
<g ><use style="fill: none; stroke: #000000; stroke-width: 0.500000; stroke-linejoin: round; stroke-linecap: butt;  opacity: 1.000000" xlink:href="#mb39cfcf7402899e54c4d755745537394" x="42.387500" y="179.071763"/>
</g></g>
</g>
<g id="ytick12">
<g id="line2d39">
<g ><use style="fill: none; stroke: #000000; stroke-width: 0.500000; stroke-linejoin: round; stroke-linecap: butt;  opacity: 1.000000" xlink:href="#mb39cfcf7402899e54c4d755745537394" x="42.387500" y="168.802891"/>
</g></g>
</g>
<g id="ytick13">
<g id="line2d40">
<g ><use style="fill: none; stroke: #000000; stroke-width: 0.500000; stroke-linejoin: round; stroke-linecap: butt;  opacity: 1.000000" xlink:href="#mb39cfcf7402899e54c4d755745537394" x="42.387500" y="148.265146"/>
</g></g>
</g>
<g id="ytick14">
<g id="line2d41">
<g ><use style="fill: none; stroke: #000000; stroke-width: 0.500000; stroke-linejoin: round; stroke-linecap: butt;  opacity: 1.000000" xlink:href="#mb39cfcf7402899e54c4d755745537394" x="42.387500" y="137.996273"/>
</g></g>
</g>
<g id="ytick15">
<g id="line2d42">
<g ><use style="fill: none; stroke: #000000; stroke-width: 0.500000; stroke-linejoin: round; stroke-linecap: butt;  opacity: 1.000000" xlink:href="#mb39cfcf7402899e54c4d755745537394" x="42.387500" y="127.727401"/>
</g></g>
</g>
<g id="ytick16">
<g id="line2d43">
<g ><use style="fill: none; stroke: #000000; stroke-width: 0.500000; stroke-linejoin: round; stroke-linecap: butt;  opacity: 1.000000" xlink:href="#mb39cfcf7402899e54c4d755745537394" x="42.387500" y="107.189656"/>
</g></g>
</g>
<g id="ytick17">
<g id="line2d44">
<g ><use style="fill: none; stroke: #000000; stroke-width: 0.500000; stroke-linejoin: round; stroke-linecap: butt;  opacity: 1.000000" xlink:href="#mb39cfcf7402899e54c4d755745537394" x="42.387500" y="96.920784"/>
</g></g>
</g>
<g id="ytick18">
<g id="line2d45">
<g ><use style="fill: none; stroke: #000000; stroke-width: 0.500000; stroke-linejoin: round; stroke-linecap: butt;  opacity: 1.000000" xlink:href="#mb39cfcf7402899e54c4d755745537394" x="42.387500" y="86.651911"/>
</g></g>
</g>
<g id="ytick19">
<g id="line2d46">
<g ><use style="fill: none; stroke: #000000; stroke-width: 0.500000; stroke-linejoin: round; stroke-linecap: butt;  opacity: 1.000000" xlink:href="#mb39cfcf7402899e54c4d755745537394" x="42.387500" y="66.114166"/>
</g></g>
</g>
<g id="ytick20">
<g id="line2d47">
<g ><use style="fill: none; stroke: #000000; stroke-width: 0.500000; stroke-linejoin: round; stroke-linecap: butt;  opacity: 1.000000" xlink:href="#mb39cfcf7402899e54c4d755745537394" x="42.387500" y="55.845294"/>
</g></g>
</g>
<g id="ytick21">
<g id="line2d48">
<g ><use style="fill: none; stroke: #000000; stroke-width: 0.500000; stroke-linejoin: round; stroke-linecap: butt;  opacity: 1.000000" xlink:href="#mb39cfcf7402899e54c4d755745537394" x="42.387500" y="45.576421"/>
</g></g>
</g>
<g id="text12">
<defs>
<path id="c_9e353a6271f61d3dbba780fb2dfe9f35" d="M19.500000 -62.500000l-1.000000 -2.000000q3.796875 -2.296875 9.796875 -2.296875q18.796875 0.000000 18.796875 26.000000q0.000000 4.890625 -0.796875 10.093750q-0.796875 5.203125 -2.906250 11.000000q-2.093750 5.796875 -5.296875 10.359375q-3.187500 4.546875 -8.500000 7.500000q-5.296875 2.937500 -12.000000 2.937500q-6.890625 0.000000 -10.250000 -4.593750q-3.343750 -4.593750 -3.343750 -11.593750q0.000000 -10.906250 7.546875 -19.656250q7.546875 -8.750000 18.156250 -8.750000q6.890625 0.000000 9.593750 4.796875q0.703125 -3.890625 0.703125 -7.000000q0.000000 -7.703125 -3.046875 -12.890625q-3.046875 -5.203125 -10.046875 -5.203125q-3.312500 0.000000 -7.406250 1.296875M36.703125 -31.906250q0.000000 -4.390625 -1.859375 -6.484375q-1.843750 -2.109375 -4.250000 -2.109375q-7.296875 0.000000 -12.906250 9.046875q-5.593750 9.046875 -5.593750 19.750000q0.000000 9.796875 6.703125 9.796875q5.406250 0.000000 9.750000 -5.890625q4.359375 -5.906250 6.656250 -14.296875q1.500000 -5.500000 1.500000 -9.812500"/>
<path id="c_322d44ed1377de836f22e8890a965a87" d="M9.718750 16.500000q1.859375 1.421875 4.484375 1.421875q3.578125 0.000000 5.812500 -7.906250q0.937500 -3.812500 5.078125 -25.109375l4.593750 -24.500000l-8.593750 0.000000q-0.968750 0.000000 -0.968750 -1.328125q0.390625 -2.187500 1.265625 -2.187500l8.937500 0.000000l1.171875 -6.500000q0.578125 -3.031250 1.062500 -5.203125q0.500000 -2.171875 1.062500 -4.015625q0.562500 -1.859375 1.671875 -4.156250q1.718750 -3.281250 4.625000 -5.406250q2.906250 -2.125000 6.265625 -2.125000q2.203125 0.000000 4.281250 0.812500q2.078125 0.812500 3.390625 2.421875q1.312500 1.609375 1.312500 3.796875q0.000000 2.546875 -1.687500 4.437500q-1.671875 1.875000 -4.062500 1.875000q-1.625000 0.000000 -2.765625 -1.000000q-1.140625 -1.015625 -1.140625 -2.625000q0.000000 -2.187500 1.484375 -3.828125q1.484375 -1.640625 3.687500 -1.875000q-1.859375 -1.421875 -4.593750 -1.421875q-1.515625 0.000000 -2.859375 1.421875q-1.343750 1.406250 -1.734375 3.015625q-0.625000 2.546875 -2.781250 13.781250l-1.218750 6.593750l10.296875 0.000000q0.984375 0.000000 0.984375 1.312500q-0.046875 0.250000 -0.203125 0.859375q-0.140625 0.609375 -0.406250 0.984375q-0.265625 0.359375 -0.656250 0.359375l-10.703125 0.000000l-4.640625 24.406250q-0.875000 5.328125 -2.031250 10.828125q-1.140625 5.484375 -3.218750 11.265625q-2.062500 5.796875 -5.296875 9.703125q-3.218750 3.906250 -7.609375 3.906250q-3.375000 0.000000 -6.031250 -1.937500q-2.656250 -1.921875 -2.656250 -5.093750q0.000000 -2.546875 1.625000 -4.437500q1.640625 -1.875000 4.125000 -1.875000q1.671875 0.000000 2.781250 1.000000q1.125000 1.015625 1.125000 2.625000q0.000000 2.140625 -1.593750 3.921875q-1.578125 1.781250 -3.671875 1.781250"/>
<path id="c_06a7a4502300c60b4feec85758ecf628" d="M31.000000 24.812500q-5.562500 -4.406250 -9.593750 -10.093750q-4.015625 -5.687500 -6.593750 -12.140625q-2.562500 -6.437500 -3.828125 -13.468750q-1.265625 -7.031250 -1.265625 -14.109375q0.000000 -7.171875 1.265625 -14.203125q1.265625 -7.031250 3.875000 -13.531250q2.625000 -6.500000 6.671875 -12.156250q4.062500 -5.671875 9.468750 -9.921875q0.000000 -0.187500 0.500000 -0.187500l0.921875 0.000000q0.296875 0.000000 0.531250 0.265625q0.250000 0.265625 0.250000 0.609375q0.000000 0.437500 -0.187500 0.640625q-4.890625 4.781250 -8.140625 10.250000q-3.250000 5.468750 -5.234375 11.656250q-1.968750 6.171875 -2.843750 12.796875q-0.875000 6.609375 -0.875000 13.781250q0.000000 31.781250 16.984375 48.296875q0.296875 0.281250 0.296875 0.828125q0.000000 0.234375 -0.265625 0.546875q-0.265625 0.328125 -0.515625 0.328125l-0.921875 0.000000q-0.500000 0.000000 -0.500000 -0.187500"/>
<path id="c_6a3a612567bb59e037cbf13158797929" d="M7.515625 -23.000000q-0.828125 0.000000 -1.375000 -0.625000q-0.531250 -0.640625 -0.531250 -1.375000q0.000000 -0.734375 0.531250 -1.359375q0.546875 -0.640625 1.375000 -0.640625l29.406250 0.000000l0.000000 -29.500000q0.000000 -0.781250 0.578125 -1.281250q0.593750 -0.515625 1.421875 -0.515625q0.734375 0.000000 1.359375 0.515625q0.640625 0.500000 0.640625 1.281250l0.000000 29.500000l29.390625 0.000000q0.734375 0.000000 1.265625 0.640625q0.546875 0.625000 0.546875 1.359375q0.000000 0.734375 -0.546875 1.375000q-0.531250 0.625000 -1.265625 0.625000l-29.390625 0.000000l0.000000 29.500000q0.000000 0.781250 -0.640625 1.281250q-0.625000 0.515625 -1.359375 0.515625q-0.828125 0.000000 -1.421875 -0.515625q-0.578125 -0.500000 -0.578125 -1.281250l0.000000 -29.500000z"/>
<path id="c_4b4b135d81e9b78c16b841add313c4b1" d="M9.515625 -7.718750q2.343750 3.421875 6.296875 5.078125q3.968750 1.656250 8.500000 1.656250q5.812500 0.000000 8.250000 -4.953125q2.453125 -4.953125 2.453125 -11.250000q0.000000 -2.828125 -0.515625 -5.656250q-0.515625 -2.843750 -1.734375 -5.281250q-1.218750 -2.437500 -3.343750 -3.906250q-2.125000 -1.468750 -5.203125 -1.468750l-6.640625 0.000000q-0.875000 0.000000 -0.875000 -0.921875l0.000000 -0.875000q0.000000 -0.781250 0.875000 -0.781250l5.515625 -0.453125q3.515625 0.000000 5.828125 -2.625000q2.328125 -2.640625 3.406250 -6.421875q1.078125 -3.781250 1.078125 -7.203125q0.000000 -4.781250 -2.250000 -7.859375q-2.250000 -3.078125 -6.843750 -3.078125q-3.796875 0.000000 -7.265625 1.437500q-3.468750 1.437500 -5.515625 4.375000q0.187500 -0.046875 0.328125 -0.078125q0.156250 -0.031250 0.343750 -0.031250q2.250000 0.000000 3.765625 1.562500q1.515625 1.562500 1.515625 3.765625q0.000000 2.156250 -1.515625 3.718750q-1.515625 1.562500 -3.765625 1.562500q-2.187500 0.000000 -3.750000 -1.562500q-1.562500 -1.562500 -1.562500 -3.718750q0.000000 -4.296875 2.578125 -7.468750q2.593750 -3.171875 6.671875 -4.812500q4.078125 -1.640625 8.171875 -1.640625q3.031250 0.000000 6.390625 0.906250q3.375000 0.906250 6.109375 2.593750q2.734375 1.687500 4.468750 4.328125q1.734375 2.625000 1.734375 6.000000q0.000000 4.203125 -1.875000 7.765625q-1.875000 3.562500 -5.156250 6.156250q-3.265625 2.578125 -7.171875 3.843750q4.343750 0.828125 8.250000 3.281250q3.906250 2.437500 6.265625 6.250000q2.375000 3.796875 2.375000 8.203125q0.000000 5.515625 -3.031250 9.984375q-3.015625 4.468750 -7.953125 6.984375q-4.937500 2.515625 -10.406250 2.515625q-4.687500 0.000000 -9.406250 -1.796875q-4.703125 -1.781250 -7.703125 -5.343750q-3.000000 -3.562500 -3.000000 -8.546875q0.000000 -2.484375 1.656250 -4.140625q1.656250 -1.656250 4.156250 -1.656250q1.609375 0.000000 2.953125 0.750000q1.343750 0.750000 2.093750 2.125000q0.765625 1.359375 0.765625 2.921875q0.000000 2.453125 -1.718750 4.109375q-1.703125 1.656250 -4.093750 1.656250z"/>
<path id="c_38f1347990be0dab3531b8ce9eda7db9" d="M14.703125 -2.875000q0.000000 -0.781250 0.484375 -1.421875l20.796875 -20.703125l-20.796875 -20.796875q-0.484375 -0.500000 -0.484375 -1.328125q0.000000 -0.734375 0.578125 -1.359375q0.593750 -0.640625 1.421875 -0.640625q0.687500 0.000000 1.515625 0.640625l20.703125 20.703125l20.593750 -20.703125q0.843750 -0.640625 1.468750 -0.640625q0.828125 0.000000 1.406250 0.593750q0.593750 0.578125 0.593750 1.406250q0.000000 0.828125 -0.484375 1.328125l-20.796875 20.796875l20.796875 20.703125q0.484375 0.640625 0.484375 1.421875q0.000000 0.828125 -0.593750 1.421875q-0.578125 0.578125 -1.406250 0.578125q-0.734375 0.000000 -1.468750 -0.734375l-20.593750 -20.609375l-20.703125 20.609375q-0.734375 0.734375 -1.515625 0.734375q-0.828125 0.000000 -1.421875 -0.640625q-0.578125 -0.640625 -0.578125 -1.359375"/>
<path id="c_f47f2818876b2f1a61c47f270461e46e" d="M25.000000 2.203125q-12.250000 0.000000 -16.671875 -10.078125q-4.421875 -10.093750 -4.421875 -24.015625q0.000000 -8.687500 1.578125 -16.343750q1.593750 -7.671875 6.296875 -13.015625q4.718750 -5.359375 13.218750 -5.359375q6.593750 0.000000 10.781250 3.234375q4.203125 3.218750 6.406250 8.328125q2.203125 5.093750 3.000000 10.937500q0.812500 5.828125 0.812500 12.218750q0.000000 8.593750 -1.593750 16.093750q-1.578125 7.500000 -6.218750 12.750000q-4.640625 5.250000 -13.187500 5.250000M25.000000 -0.390625q5.562500 0.000000 8.296875 -5.703125q2.734375 -5.718750 3.375000 -12.656250q0.640625 -6.937500 0.640625 -14.750000q0.000000 -7.515625 -0.640625 -13.859375q-0.640625 -6.359375 -3.359375 -11.500000q-2.703125 -5.156250 -8.312500 -5.156250q-5.656250 0.000000 -8.390625 5.187500q-2.734375 5.171875 -3.375000 11.500000q-0.640625 6.312500 -0.640625 13.828125q0.000000 5.562500 0.265625 10.500000q0.281250 4.937500 1.453125 10.187500q1.171875 5.250000 3.781250 8.843750q2.609375 3.578125 6.906250 3.578125"/>
<path id="c_b865a8a4692360a5eaaff4ecf56eccf7" d="M6.500000 25.000000q-0.890625 0.000000 -0.890625 -0.875000q0.000000 -0.437500 0.203125 -0.640625q17.093750 -16.703125 17.093750 -48.484375q0.000000 -31.781250 -16.906250 -48.296875q-0.390625 -0.234375 -0.390625 -0.828125q0.000000 -0.343750 0.265625 -0.609375q0.281250 -0.265625 0.625000 -0.265625l0.921875 0.000000q0.296875 0.000000 0.484375 0.187500q7.187500 5.671875 11.968750 13.781250q4.781250 8.093750 7.000000 17.281250q2.234375 9.171875 2.234375 18.750000q0.000000 7.078125 -1.203125 13.937500q-1.203125 6.859375 -3.812500 13.515625q-2.609375 6.671875 -6.609375 12.312500q-4.000000 5.640625 -9.578125 10.046875q-0.187500 0.187500 -0.484375 0.187500z"/>
</defs>
<g id="mathtext2">
<g style="fill: #000000" transform="translate(7.887500,23.200000)">
<use xlink:href="#c_9e353a6271f61d3dbba780fb2dfe9f35" transform="translate(4.000000,-11.143750)scale(0.070000)"/>
<use xlink:href="#c_9e353a6271f61d3dbba780fb2dfe9f35" transform="translate(0.000000,-3.009375)scale(0.070000)"/>
<use xlink:href="#c_37be95c62dc54aa24625fda644d3578c" transform="translate(3.296994,-3.009375)scale(0.070000)"/>
<use xlink:href="#c_322d44ed1377de836f22e8890a965a87" transform="translate(8.608517,-3.009375)scale(0.070000)"/>
<use xlink:href="#c_06a7a4502300c60b4feec85758ecf628" transform="translate(13.279904,-7.317187)scale(0.100000)"/>
<use xlink:href="#c_37be95c62dc54aa24625fda644d3578c" transform="translate(38.161740,-11.220313)scale(0.070000)"/>
<use xlink:href="#c_37be95c62dc54aa24625fda644d3578c" transform="translate(17.161740,-3.009375)scale(0.070000)"/>
<use xlink:href="#c_6a3a612567bb59e037cbf13158797929" transform="translate(23.702365,-3.009375)scale(0.070000)"/>
<use xlink:href="#c_37be95c62dc54aa24625fda644d3578c" transform="translate(29.579904,-3.009375)scale(0.070000)"/>
<use xlink:href="#c_322d44ed1377de836f22e8890a965a87" transform="translate(34.891428,-3.009375)scale(0.070000)"/>
<use xlink:href="#c_6a3a612567bb59e037cbf13158797929" transform="translate(39.541916,-3.009375)scale(0.070000)"/>
<use xlink:href="#c_4b4b135d81e9b78c16b841add313c4b1" transform="translate(45.419455,-3.009375)scale(0.070000)"/>
<use xlink:href="#c_38f1347990be0dab3531b8ce9eda7db9" transform="translate(50.148557,-3.009375)scale(0.070000)"/>
<use xlink:href="#c_37be95c62dc54aa24625fda644d3578c" transform="translate(54.757346,-3.009375)scale(0.070000)"/>
<use xlink:href="#c_f47f2818876b2f1a61c47f270461e46e" transform="translate(60.068869,-1.223719)scale(0.049000)"/>
<use xlink:href="#c_b865a8a4692360a5eaaff4ecf56eccf7" transform="translate(64.818869,-7.317187)scale(0.100000)"/>
</g>
<g style="fill: #000000; stroke: none" transform="translate(7.887500,23.200000)">
<rect x="0.000000" y="-9.567187" width="12.029904" height="0.625000" fill="black" stroke="none" /><rect x="17.161740" y="-9.567187" width="46.407129" height="0.625000" fill="black" stroke="none" /></g></g>
</g>
</g>
<g id="patch3">
<path style="fill: none; stroke: #000000; stroke-width: 0.800000; stroke-linejoin: round; stroke-linecap: square;  opacity: 1.000000"  d="M35.949038 35.307549L370.749038 35.307549"/>
</g>
<g id="patch4">
<path style="fill: none; stroke: #000000; stroke-width: 0.800000; stroke-linejoin: round; stroke-linecap: square;  opacity: 1.000000"  d="M42.387500 244.792547L42.387500 31.200000"/>
</g>
<g id="legend1">
<g id="patch5">
<path style="fill: #e6e6e6; stroke: #000000; stroke-width: 1.000000; stroke-linejoin: round; stroke-linecap: square;  opacity: 1.000000"  d="M291.374038 108.356875L364.749038 108.356875L364.749038 37.200000
L291.374038 37.200000L291.374038 108.356875z"/>
</g>
<g id="line2d49">
<path style="fill: none; stroke: #005959; stroke-width: 1.000000; stroke-linejoin: round; stroke-linecap: square;  opacity: 1.000000"  d="M302.174038 49.325000L295.574038 49.325000"/>
</g>
<g id="line2d50">
</g>
<g id="text13">
<defs>
<path id="c_4c6532c564269b2c70b230c2e45c01e4" d="M44.390625 -34.187500q3.171875 1.078125 6.171875 4.593750q3.000000 3.515625 6.031250 9.671875l10.015625 19.921875l-10.609375 0.000000l-9.312500 -18.703125q-3.625000 -7.328125 -7.015625 -9.718750q-3.390625 -2.390625 -9.250000 -2.390625l-10.750000 0.000000l0.000000 30.812500l-9.859375 0.000000l0.000000 -72.906250l22.265625 0.000000q12.500000 0.000000 18.656250 5.234375q6.156250 5.218750 6.156250 15.765625q0.000000 6.890625 -3.203125 11.437500q-3.203125 4.531250 -9.296875 6.281250M19.671875 -64.796875l0.000000 25.875000l12.406250 0.000000q7.125000 0.000000 10.765625 -3.296875q3.640625 -3.296875 3.640625 -9.687500q0.000000 -6.390625 -3.640625 -9.640625q-3.640625 -3.250000 -10.765625 -3.250000z"/>
<path id="c_73b12fe3945075d29fe0cc9a468fa31e" d="M37.109375 -75.984375l0.000000 7.484375l-8.593750 0.000000q-4.828125 0.000000 -6.718750 1.953125q-1.875000 1.953125 -1.875000 7.031250l0.000000 4.828125l14.796875 0.000000l0.000000 6.984375l-14.796875 0.000000l0.000000 47.703125l-9.031250 0.000000l0.000000 -47.703125l-8.593750 0.000000l0.000000 -6.984375l8.593750 0.000000l0.000000 -3.812500q0.000000 -9.125000 4.250000 -13.296875q4.250000 -4.187500 13.468750 -4.187500z"/>
<path id="c_d41d8cd98f00b204e9800998ecf8427e" d=""/>
<path id="c_8c0379a31aa3b07b28207e25658c6113" d="M10.593750 -45.406250l62.593750 0.000000l0.000000 8.203125l-62.593750 0.000000zM10.593750 -25.484375l62.593750 0.000000l0.000000 8.296875l-62.593750 0.000000z"/>
<path id="c_956f18cfdaf972f35a6c2b4aaac2532b" d="M8.203125 -72.906250l46.875000 0.000000l0.000000 4.203125l-26.468750 68.703125l-10.296875 0.000000l24.906250 -64.593750l-35.015625 0.000000z"/>
</defs>
<g style="fill: #000000; opacity: 1.000000" transform="translate(305.174038,53.525000)scale(0.120000)">
<use xlink:href="#c_4c6532c564269b2c70b230c2e45c01e4"/>
<use xlink:href="#c_73b12fe3945075d29fe0cc9a468fa31e" x="69.482422"/>
<use xlink:href="#c_d41d8cd98f00b204e9800998ecf8427e" x="104.687500"/>
<use xlink:href="#c_8c0379a31aa3b07b28207e25658c6113" x="136.474609"/>
<use xlink:href="#c_d41d8cd98f00b204e9800998ecf8427e" x="220.263672"/>
<use xlink:href="#c_956f18cfdaf972f35a6c2b4aaac2532b" x="252.050781"/>
<use xlink:href="#c_7a2040fe3b94fcd41d0a72c84e93b115" x="315.673828"/>
</g>
</g>
<g id="line2d51">
<path style="fill: none; stroke: #008080; stroke-width: 1.000000; stroke-linejoin: round; stroke-linecap: square;  opacity: 1.000000"  d="M302.174038 61.190000L295.574038 61.190000"/>
</g>
<g id="line2d52">
</g>
<g id="text14">
<g style="fill: #000000; opacity: 1.000000" transform="translate(305.174038,65.390000)scale(0.120000)">
<use xlink:href="#c_4c6532c564269b2c70b230c2e45c01e4"/>
<use xlink:href="#c_73b12fe3945075d29fe0cc9a468fa31e" x="69.482422"/>
<use xlink:href="#c_d41d8cd98f00b204e9800998ecf8427e" x="104.687500"/>
<use xlink:href="#c_8c0379a31aa3b07b28207e25658c6113" x="136.474609"/>
<use xlink:href="#c_d41d8cd98f00b204e9800998ecf8427e" x="220.263672"/>
<use xlink:href="#c_42baa63129a918535c52adb20d687ea7" x="252.050781"/>
<use xlink:href="#c_7a2040fe3b94fcd41d0a72c84e93b115" x="315.673828"/>
<use xlink:href="#c_7a2040fe3b94fcd41d0a72c84e93b115" x="379.296875"/>
</g>
</g>
<g id="line2d53">
<path style="fill: none; stroke: #009f9f; stroke-width: 1.000000; stroke-linejoin: round; stroke-linecap: square;  opacity: 1.000000"  d="M302.174038 73.055000L295.574038 73.055000"/>
</g>
<g id="line2d54">
</g>
<g id="text15">
<g style="fill: #000000; opacity: 1.000000" transform="translate(305.174038,77.255000)scale(0.120000)">
<use xlink:href="#c_4c6532c564269b2c70b230c2e45c01e4"/>
<use xlink:href="#c_73b12fe3945075d29fe0cc9a468fa31e" x="69.482422"/>
<use xlink:href="#c_d41d8cd98f00b204e9800998ecf8427e" x="104.687500"/>
<use xlink:href="#c_8c0379a31aa3b07b28207e25658c6113" x="136.474609"/>
<use xlink:href="#c_d41d8cd98f00b204e9800998ecf8427e" x="220.263672"/>
<use xlink:href="#c_42baa63129a918535c52adb20d687ea7" x="252.050781"/>
<use xlink:href="#c_ed3f3ed3ebfbd18bcb9c012009a68ad1" x="315.673828"/>
<use xlink:href="#c_1260a2df50f305f3db244e29828f968e" x="379.296875"/>
</g>
</g>
<g id="line2d55">
<path style="fill: none; stroke: #00bfbf; stroke-width: 1.000000; stroke-linejoin: round; stroke-linecap: square;  opacity: 1.000000"  d="M302.174038 84.920000L295.574038 84.920000"/>
</g>
<g id="line2d56">
</g>
<g id="text16">
<g style="fill: #000000; opacity: 1.000000" transform="translate(305.174038,89.120000)scale(0.120000)">
<use xlink:href="#c_4c6532c564269b2c70b230c2e45c01e4"/>
<use xlink:href="#c_73b12fe3945075d29fe0cc9a468fa31e" x="69.482422"/>
<use xlink:href="#c_d41d8cd98f00b204e9800998ecf8427e" x="104.687500"/>
<use xlink:href="#c_8c0379a31aa3b07b28207e25658c6113" x="136.474609"/>
<use xlink:href="#c_d41d8cd98f00b204e9800998ecf8427e" x="220.263672"/>
<use xlink:href="#c_42baa63129a918535c52adb20d687ea7" x="252.050781"/>
<use xlink:href="#c_1260a2df50f305f3db244e29828f968e" x="315.673828"/>
<use xlink:href="#c_7a2040fe3b94fcd41d0a72c84e93b115" x="379.296875"/>
</g>
</g>
<g id="line2d57">
<path style="fill: none; stroke: #00ffff; stroke-width: 1.000000; stroke-linejoin: round; stroke-linecap: square;  opacity: 1.000000"  d="M302.174038 96.785000L295.574038 96.785000"/>
</g>
<g id="line2d58">
</g>
<g id="text17">
<g style="fill: #000000; opacity: 1.000000" transform="translate(305.174038,100.985000)scale(0.120000)">
<use xlink:href="#c_4c6532c564269b2c70b230c2e45c01e4"/>
<use xlink:href="#c_73b12fe3945075d29fe0cc9a468fa31e" x="69.482422"/>
<use xlink:href="#c_d41d8cd98f00b204e9800998ecf8427e" x="104.687500"/>
<use xlink:href="#c_8c0379a31aa3b07b28207e25658c6113" x="136.474609"/>
<use xlink:href="#c_d41d8cd98f00b204e9800998ecf8427e" x="220.263672"/>
<use xlink:href="#c_ed3f3ed3ebfbd18bcb9c012009a68ad1" x="252.050781"/>
<use xlink:href="#c_7a2040fe3b94fcd41d0a72c84e93b115" x="315.673828"/>
<use xlink:href="#c_7a2040fe3b94fcd41d0a72c84e93b115" x="379.296875"/>
</g>
</g>
</g>
</g>
</g>
</svg>
